<svg id="visual" viewBox="0 0 900 600" width="900" height="600" xmlns="http://www.w3.org/2000/svg" xmlns:xlink="http://www.w3.org/1999/xlink" version="1.1"><rect width="900" height="600" fill="#941e1e"></rect><g><g transform="translate(318 231)"><path d="M77 -21.2C86.9 5.6 73.3 43.9 44.9 65.3C16.5 86.8 -26.6 91.4 -53.7 72.2C-80.7 52.9 -91.6 9.8 -80 -19.3C-68.4 -48.4 -34.2 -63.5 -0.3 -63.3C33.5 -63.2 67 -48 77 -21.2Z" fill="none" stroke="#FF6F61" stroke-width="20"></path></g><g transform="translate(892 95)"><path d="M55.3 -17.6C63.7 7.7 56.9 38.4 38.3 51.6C19.8 64.8 -10.6 60.5 -30.4 45.3C-50.3 30.1 -59.6 3.8 -52.8 -19.4C-46 -42.6 -23 -62.8 0.2 -62.9C23.5 -63 47 -42.9 55.3 -17.6Z" fill="none" stroke="#FF6F61" stroke-width="20"></path></g><g transform="translate(6 6)"><path d="M40.9 -13.3C45.4 0.6 36.3 18.9 21 30.4C5.8 41.8 -15.5 46.3 -32.9 35.9C-50.2 25.5 -63.5 0.3 -57.4 -15.9C-51.2 -32.1 -25.6 -39.2 -3.7 -38C18.2 -36.8 36.4 -27.3 40.9 -13.3Z" fill="none" stroke="#FF6F61" stroke-width="20"></path></g><g transform="translate(18 506)"><path d="M42.5 -7.6C50 9.3 47.5 35.7 32.6 47C17.7 58.4 -9.7 54.7 -26.9 41.3C-44 27.8 -50.9 4.5 -44.8 -10.6C-38.6 -25.6 -19.3 -32.4 -0.9 -32.1C17.5 -31.8 35 -24.5 42.5 -7.6Z" fill="none" stroke="#FF6F61" stroke-width="20"></path></g><g transform="translate(493 532)"><path d="M64.8 -26.8C72.7 3.1 59.9 34 39.7 46.9C19.4 59.8 -8.3 54.7 -34.5 38C-60.7 21.2 -85.3 -7.3 -79.3 -34.6C-73.3 -62 -36.7 -88.2 -4.1 -86.9C28.5 -85.6 57 -56.7 64.8 -26.8Z" stroke="#FF6F61" fill="none" stroke-width="20"></path></g></g></svg>