<svg id="visual" viewBox="0 0 900 600" width="900" height="600" xmlns="http://www.w3.org/2000/svg" xmlns:xlink="http://www.w3.org/1999/xlink" version="1.1"><rect x="0" y="0" width="900" height="600" fill="#4b3e29"></rect><defs><linearGradient id="grad1_0" x1="33.3%" y1="100%" x2="100%" y2="0%"><stop offset="20%" stop-color="#4b3e29" stop-opacity="1"></stop><stop offset="80%" stop-color="#4b3e29" stop-opacity="1"></stop></linearGradient></defs><defs><linearGradient id="grad2_0" x1="0%" y1="100%" x2="66.7%" y2="0%"><stop offset="20%" stop-color="#4b3e29" stop-opacity="1"></stop><stop offset="80%" stop-color="#4b3e29" stop-opacity="1"></stop></linearGradient></defs><g transform="translate(900, 600)"><path d="M-486.7 0C-477.5 -62.9 -468.3 -125.7 -446.2 -184.8C-424.2 -244 -389.3 -299.3 -344.2 -344.2C-299 -389 -243.5 -423.3 -184.5 -445.3C-125.4 -467.3 -62.7 -477 0 -486.7L0 0Z" fill="#5bcfc5"></path></g><g transform="translate(0, 0)"><path d="M486.7 0C446.9 51.2 407 102.4 386.2 160C365.3 217.6 363.5 281.6 333.8 333.8C304.1 385.9 246.5 426.2 186.3 449.7C126 473.2 63 480 0 486.7L0 0Z" fill="#5bcfc5"></path></g></svg>